<svg xmlns="http://www.w3.org/2000/svg" xmlns:xlink="http://www.w3.org/1999/xlink" version="1.1" width="256" height="256" viewBox="0 0 256 256" xml:space="preserve">

<defs>
</defs>
<g style="stroke: none; stroke-width: 0; stroke-dasharray: none; stroke-linecap: butt; stroke-linejoin: miter; stroke-miterlimit: 10; fill: none; fill-rule: nonzero; opacity: 1;" transform="translate(1.4065934065934016 1.4065934065934016) scale(2.81 2.81)" >
	<path d="M 42.901 85.549 c 1.059 1.383 3.138 1.383 4.197 0 c 7.061 -9.223 28.773 -25.692 33.475 -30.82 c 12.568 -12.568 12.568 -32.946 0 -45.514 h 0 c -8.961 -8.961 -26.859 -7.239 -34.145 3.1 c -0.699 0.992 -2.158 0.992 -2.857 0 C 36.286 1.975 18.387 0.253 9.426 9.214 h 0 c -12.568 12.568 -12.568 32.946 0 45.514 C 14.128 59.857 35.84 76.325 42.901 85.549 z" style="stroke: none; stroke-width: 1; stroke-dasharray: none; stroke-linecap: butt; stroke-linejoin: miter; stroke-miterlimit: 10; fill: rgb(0,0,0); fill-rule: nonzero; opacity: 1;" transform=" matrix(1 0 0 1 0 0) " stroke-linecap="round" />
</g>
</svg>